# Blender 3.1.0
# www.blender.org
mtllib model_collision.mtl
o model
v -0.089769 0.007979 0.003134
v -0.088664 -0.006674 0.000595
v -0.089933 -0.006862 0.001905
v -0.089868 -0.011685 0.002464
v -0.084111 -0.028503 0.002126
v -0.079698 -0.030886 0.000193
v -0.079296 -0.034691 0.001186
v -0.102656 0.035005 0.044597
v -0.109962 -0.023723 0.044458
v -0.112252 -0.017092 0.046913
v -0.111727 0.020691 0.054126
v -0.109687 0.027319 0.055622
v -0.116289 0.006550 0.062146
v -0.114158 -0.010159 0.050632
v -0.118093 -0.000449 0.070142
v -0.116630 -0.014560 0.064059
v -0.074946 0.037412 0.004468
v -0.082304 0.035285 0.010380
v -0.082064 0.027427 0.003352
v -0.080899 0.023789 0.000548
v -0.064928 0.041513 0.000639
v -0.063755 0.044823 0.003046
v -0.061603 0.042390 0.000223
v -0.081259 0.054780 0.035993
v -0.041027 0.072800 0.041022
v -0.048426 0.075205 0.051060
v -0.044909 0.074605 0.047354
v -0.022335 0.077337 0.058405
v -0.109831 0.030384 0.062373
v -0.095933 0.051106 0.060855
v -0.102994 0.046485 0.088020
v -0.099912 0.050326 0.091313
v -0.117090 0.012480 0.074844
v -0.116880 0.016296 0.084546
v -0.118088 0.010497 0.085126
v -0.061378 0.066362 0.036583
v -0.069483 0.067285 0.048014
v -0.070742 0.068710 0.054803
v -0.064385 0.071627 0.055134
v -0.072726 0.071051 0.107962
v -0.067579 0.073276 0.109528
v -0.040028 0.080330 0.107280
v -0.114353 -0.022181 0.059182
v -0.115536 -0.022378 0.065885
v -0.113918 -0.029815 0.070198
v -0.099995 -0.045884 0.045609
v -0.093635 -0.052566 0.042802
v -0.098918 -0.050713 0.052320
v -0.071188 -0.062612 0.026828
v -0.086770 -0.061968 0.048408
v -0.077498 -0.067499 0.044781
v -0.067121 -0.065976 0.028968
v -0.071795 -0.071367 0.046205
v -0.065615 -0.074000 0.045375
v -0.085640 -0.065241 0.055177
v -0.083413 -0.068510 0.060949
v -0.071735 -0.075668 0.061163
v -0.101735 -0.054419 0.085755
v -0.099324 -0.057281 0.087793
v -0.040637 0.049641 0.000496
v -0.037453 0.051405 0.001597
v -0.028938 0.051051 0.001299
v -0.008756 0.044708 0.000615
v -0.013327 0.047219 0.001140
v -0.004365 0.042272 0.000741
v -0.002621 0.041912 0.001150
v 0.002641 0.041602 0.004934
v 0.011966 0.028293 0.002211
v 0.016769 0.024800 0.004820
v 0.012768 0.031135 0.004989
v 0.014923 0.021954 0.001585
v 0.019261 0.019910 0.004932
v 0.017965 0.013073 0.001407
v 0.022583 0.010367 0.005010
v 0.019736 -0.009305 0.001347
v 0.022190 -0.000349 0.002626
v 0.024042 0.000903 0.004976
v 0.023139 -0.010597 0.004573
v -0.006864 -0.048548 0.001025
v -0.013974 -0.053276 0.001465
v -0.005931 -0.049960 0.002066
v 0.001507 -0.042966 0.001300
v -0.004943 -0.051353 0.003869
v 0.011126 -0.034588 0.002079
v 0.020904 -0.010905 0.002247
v -0.017037 0.072639 0.045299
v -0.003181 0.069492 0.048825
v -0.011081 0.075928 0.063827
v 0.020626 0.054776 0.051312
v 0.023466 0.047676 0.042058
v -0.005182 0.076353 0.087231
v 0.001727 0.073338 0.086328
v -0.066223 -0.047191 0.001192
v -0.057680 -0.050585 0.000289
v -0.062146 -0.052262 0.003359
v -0.050112 -0.056141 0.002199
v -0.043693 -0.055720 0.000703
v -0.043009 -0.058624 0.003449
v -0.056617 -0.082454 0.066194
v -0.059111 -0.082831 0.074458
v -0.051920 -0.084623 0.073043
v -0.045429 -0.085445 0.069858
v -0.037865 -0.086086 0.069903
v -0.028257 -0.085558 0.066735
v -0.018833 -0.056985 0.003333
v -0.018205 -0.063124 0.012826
v -0.011739 -0.061870 0.013927
v -0.013524 -0.067110 0.021608
v -0.007417 -0.065823 0.023410
v -0.004021 -0.070183 0.034800
v 0.005577 -0.067954 0.040849
v 0.000571 -0.071623 0.043159
v -0.025145 -0.086230 0.074670
v -0.015689 -0.084497 0.072809
v -0.023231 -0.086697 0.084667
v -0.021313 -0.086513 0.093130
v 0.014002 -0.066788 0.051906
v 0.022010 -0.057673 0.045899
v -0.114769 0.010253 0.272198
v -0.114527 0.009103 0.273750
v -0.115819 -0.018492 0.271300
v -0.115794 -0.016156 0.271839
v -0.107500 -0.038514 0.274718
v -0.107101 -0.039801 0.273540
v -0.103146 -0.044608 0.276083
v -0.097485 -0.050316 0.277635
v -0.041533 -0.061487 0.259700
v -0.093219 -0.052928 0.278083
v -0.086282 -0.056547 0.277376
v -0.080382 -0.058860 0.275395
v -0.088234 -0.054746 0.278161
v -0.079844 -0.058362 0.276135
v -0.105785 0.029406 0.275817
v -0.099026 0.036418 0.277363
v -0.096339 0.037724 0.277503
v -0.088229 0.044542 0.273527
v -0.094435 0.040218 0.276476
v -0.092311 0.040852 0.276663
v -0.081717 0.046980 0.271673
v -0.109826 0.023322 0.274516
v -0.111051 0.020677 0.274726
v -0.112885 0.015612 0.274424
v -0.108245 0.024733 0.276492
v 0.107744 0.011241 0.257644
v 0.115294 0.012990 0.215013
v 0.115997 0.010364 0.213243
v 0.116078 0.006694 0.209859
v 0.116992 0.003330 0.211359
v 0.117517 0.000605 0.213427
v 0.117650 -0.002497 0.216103
v 0.115281 0.014929 0.221848
v 0.117089 0.012220 0.222950
v 0.117760 0.009670 0.220054
v 0.118962 -0.000327 0.220621
v 0.118322 0.009413 0.224470
v 0.114063 0.016065 0.235656
v 0.111766 0.016735 0.240768
v 0.119333 0.003733 0.233754
v 0.113234 0.012784 0.247083
v 0.115188 0.009827 0.245987
v 0.118263 0.003815 0.240305
v 0.100281 -0.008404 0.264361
v 0.105385 -0.008950 0.259390
v 0.105863 -0.010631 0.256997
v 0.087175 0.011907 0.270107
v 0.088238 0.009843 0.270888
v 0.081719 0.006129 0.273373
v 0.087003 0.003396 0.272831
v 0.094855 0.014163 0.265307
v 0.093520 0.011945 0.267898
v 0.099028 0.014158 0.262846
v 0.097823 0.011580 0.265825
v 0.098368 0.007932 0.267089
v 0.092736 0.000496 0.271106
v 0.096230 0.002896 0.269349
v 0.099632 0.000693 0.267464
v 0.096005 -0.003000 0.269123
v 0.095406 -0.006248 0.268590
v 0.103165 0.012292 0.261483
v 0.101532 0.004233 0.265892
v 0.115551 -0.006179 0.215431
v 0.117254 -0.006155 0.223588
v 0.119466 -0.001419 0.226770
v 0.118188 -0.005574 0.229442
v 0.117125 -0.007109 0.234857
v 0.118975 -0.003288 0.233764
v 0.117878 -0.004261 0.238893
v 0.116117 -0.006410 0.242679
v 0.115546 -0.008125 0.239690
v 0.112537 0.003928 0.254055
v 0.109327 -0.003688 0.258057
v 0.110979 -0.005811 0.254540
vn -0.7945 -0.4930 -0.3545
vn -0.9116 -0.3554 -0.2064
vn -0.9250 -0.1369 -0.3543
vn -0.9080 -0.1420 -0.3941
vn -0.9102 -0.1349 -0.3916
vn -0.7623 -0.1216 -0.6357
vn -0.6198 -0.3697 -0.6923
vn -0.7698 0.0736 0.6341
vn -0.7230 -0.3272 0.6084
vn -0.4371 -0.4816 0.7596
vn -0.3818 -0.6694 0.6373
vn -0.0906 0.2597 0.9614
vn -0.5559 0.5312 0.6393
vn -0.4931 0.3061 0.8144
vn -0.7141 -0.0434 0.6987
vn -0.9815 0.0457 -0.1857
vn -0.9828 0.0314 -0.1822
vn -0.9895 -0.0582 -0.1321
vn -0.9248 -0.2152 0.3136
vn -0.9755 0.1975 0.0972
vn -0.9741 0.2259 -0.0043
vn -0.9749 0.2223 0.0081
vn -0.9778 0.1926 -0.0829
vn -0.9813 0.0430 -0.1875
vn -0.9472 0.2638 -0.1824
vn -0.9033 0.3239 -0.2814
vn -0.8778 0.2611 -0.4017
vn -0.7431 0.2035 -0.6375
vn -0.7296 -0.0158 -0.6837
vn -0.9709 -0.1562 -0.1816
vn -0.7872 0.6167 0.0017
vn -0.7839 0.6209 0.0030
vn -0.8239 0.5037 0.2600
vn -0.4913 0.7658 0.4150
vn -0.3045 0.8790 0.3669
vn -0.4583 0.8879 0.0401
vn -0.4496 0.8923 0.0418
vn -0.4617 0.8860 0.0430
vn -0.4565 0.8884 0.0487
vn -0.4195 0.9044 -0.0786
vn -0.5960 0.7106 -0.3739
vn -0.7860 0.6131 -0.0797
vn -0.0677 -0.9899 -0.1244
vn -0.0293 -0.8029 -0.5955
vn 0.2925 -0.7418 -0.6034
vn 0.3050 -0.8435 -0.4420
vn 0.2996 -0.8458 -0.4414
vn 0.2911 -0.8477 -0.4435
vn 0.2985 -0.8453 -0.4432
vn 0.3588 -0.8423 -0.4021
vn 0.2833 -0.9446 -0.1658
vn 0.1023 -0.9923 0.0698
vn -0.0143 -0.9928 -0.1193
vn -0.0243 -0.9938 -0.1086
vn 0.9220 0.2193 0.3190
vn 0.7122 0.5594 0.4241
vn 0.6573 0.5271 0.5387
vn 0.6383 0.5286 0.5596
vn 0.5638 0.2474 0.7880
vn 0.6307 0.1379 0.7637
vn 0.8319 0.0582 0.5519
vn 0.9011 -0.3747 -0.2184
vn 0.7544 -0.6517 -0.0787
vn 0.7473 -0.6237 -0.2292
vn 0.6974 -0.6299 -0.3418
vn 0.5619 -0.4193 -0.7130
vn 0.8173 -0.1851 -0.5457
vn 0.9579 -0.0776 -0.2763
vn 0.9643 -0.1352 -0.2276
vn 0.9834 -0.1601 -0.0850
vn 0.4874 0.1381 -0.8622
vn 0.5217 0.2925 -0.8014
vn 0.6922 0.3165 -0.6486
vn 0.7022 0.3353 -0.6281
vn 0.7521 0.2633 -0.6041
vn 0.8427 0.0840 -0.5318
vn 0.7065 0.0012 -0.7077
vn 0.6054 -0.1438 -0.7828
vn 0.5367 -0.0004 -0.8438
vn 0.6379 0.0912 -0.7647
vn -0.4335 -0.1892 -0.8811
vn -0.4870 -0.4969 -0.7183
vn -0.3561 0.0257 -0.9341
vn 0.9900 -0.1331 -0.0461
vn 0.9836 -0.1788 0.0236
vn 0.9614 -0.2180 0.1677
vn 0.8910 -0.3318 0.3098
vn 0.7894 -0.6135 0.0198
vn 0.7987 -0.5984 -0.0634
vn -0.0516 -0.0329 -0.9981
vn 0.0029 -0.0027 -1.0000
vn -0.0944 0.0717 -0.9929
vn -0.0029 0.0531 -0.9986
vn 0.1316 0.0070 -0.9913
vn 0.0126 -0.0018 -0.9999
vn -0.0102 -0.0359 -0.9993
vn 0.0188 -0.0142 -0.9997
vn -0.1157 0.0340 -0.9927
vn 0.0006 -0.0047 -1.0000
vn -0.8598 0.3603 0.3618
vn -0.7905 0.2668 0.5513
vn -0.3209 -0.7641 -0.5596
vn -0.4170 -0.8000 -0.4313
vn -0.4176 -0.7959 -0.4384
vn -0.4428 -0.8747 -0.1971
vn -0.5512 -0.8051 -0.2190
vn -0.5924 -0.8030 -0.0648
vn -0.6632 -0.7123 -0.2298
vn -0.6569 -0.7132 -0.2446
vn -0.8037 -0.5903 -0.0749
vn -0.3942 0.6390 -0.6606
vn -0.2453 0.4589 -0.8539
vn -0.3831 0.0934 -0.9190
vn -0.6831 0.3799 -0.6237
vn -0.4496 0.6272 -0.6359
vn -0.1068 0.9941 -0.0181
vn -0.0421 0.9952 0.0886
vn 0.2699 0.9625 0.0290
vn 0.3202 0.9383 -0.1309
vn 0.3686 0.8985 -0.2386
vn 0.1286 0.9505 -0.2828
vn 0.1403 0.9502 -0.2781
vn -0.0585 0.9106 -0.4091
vn -0.1237 0.9769 -0.1742
vn 0.3260 0.8349 0.4434
vn 0.3408 0.4609 0.8194
vn 0.4868 0.5235 0.6992
vn 0.7572 0.6523 -0.0321
vn 0.4543 0.8574 0.2418
vn 0.3558 0.8788 0.3179
vn -0.2696 -0.5841 -0.7656
vn -0.3183 -0.4505 -0.8341
vn -0.1148 0.2319 -0.9659
vn 0.2694 -0.0196 0.9628
vn -0.1639 -0.3329 0.9286
vn -0.1540 -0.7565 0.6356
vn 0.1843 -0.6700 0.7191
vn 0.4834 -0.4415 0.7559
vn 0.4361 -0.2919 0.8512
vn 0.4434 -0.2674 0.8555
vn 0.5100 -0.1066 0.8536
vn 0.2699 -0.0553 0.9613
vn 0.2882 -0.0825 0.9540
vn 0.5808 -0.4928 0.6479
vn 0.8486 -0.2900 0.4424
vn 0.8213 -0.1016 0.5614
vn 0.1396 0.2717 0.9522
vn -0.1206 0.5649 0.8163
vn 0.4619 0.4924 -0.7377
vn 0.4008 0.9153 0.0386
vn 0.7639 0.6446 -0.0304
vn 0.7664 0.6402 -0.0528
vn 0.7783 0.6106 -0.1463
vn 0.7282 0.6233 -0.2850
vn 0.7311 0.6225 -0.2793
vn 0.6593 0.6222 -0.4222
vn -0.1243 -0.9089 0.3982
vn 0.1556 -0.9178 0.3654
vn 0.4792 -0.8014 0.3578
vn 0.5587 -0.7785 -0.2861
vn 0.5557 -0.7843 -0.2758
vn 0.3049 -0.7301 -0.6116
vn 0.3075 -0.4609 -0.8325
vn 0.5587 -0.7808 -0.2796
vn 0.0758 -0.4123 -0.9079
vn -0.0006 -0.4578 -0.8891
vn 0.3769 -0.1741 -0.9097
vn -0.3060 -0.9368 -0.1698
vn -0.1910 -0.7297 -0.6566
vn -0.1883 -0.9702 -0.1524
vn -0.3113 -0.9349 -0.1706
vn -0.3043 -0.9362 -0.1760
vn -0.3117 -0.9345 -0.1718
vn -0.3100 -0.9363 -0.1648
vn 0.2920 0.7175 -0.6324
vn 0.9631 0.0808 -0.2567
vn 0.9636 0.2672 -0.0105
vn 0.9691 0.2467 -0.0044
vn 0.9781 0.2073 0.0177
vn 0.9869 0.0315 0.1585
vn -0.5455 -0.8378 0.0227
vn -0.5947 -0.4727 0.6503
vn -0.8564 -0.5122 0.0648
vn -0.8162 -0.5778 0.0042
vn -0.8142 -0.5806 0.0041
vn 0.2765 0.4025 0.8726
vn 0.2892 0.4075 0.8662
vn 0.1431 -0.9789 0.1461
vn 0.6194 -0.7592 0.1999
vn -0.8368 0.4217 0.3492
vn 0.6624 0.4163 -0.6229
vn 0.9198 0.2482 -0.3039
vn 0.0111 0.8992 0.4373
vn -0.5776 0.6583 -0.4827
vn -0.2982 0.9236 -0.2407
vn 0.0112 0.6711 -0.7413
vn -0.2167 0.6816 -0.6989
vn 0.0359 0.6272 -0.7780
vn 0.1786 0.8455 -0.5032
vn 0.0099 0.4632 -0.8862
vn -0.8675 0.4435 -0.2253
vn 0.2721 -0.1910 -0.9431
vt 0.544530 0.139267
vt 0.552236 0.122546
vt 0.554119 0.123650
vt 0.557526 0.118866
vt 0.563424 0.097133
vt 0.559727 0.090887
vt 0.562254 0.086704
vt 0.469591 0.288495
vt 0.497742 0.364021
vt 0.492282 0.355971
vt 0.466291 0.312929
vt 0.461223 0.305659
vt 0.463508 0.333394
vt 0.484954 0.348389
vt 0.456656 0.344574
vt 0.469348 0.357963
vt 0.511560 0.162182
vt 0.521579 0.167657
vt 0.524739 0.155029
vt 0.525274 0.149248
vt 0.498786 0.158953
vt 0.495592 0.163172
vt 0.494969 0.157949
vt 0.464141 0.247065
vt 0.513045 0.206689
vt 0.430492 0.199141
vt 0.423409 0.213079
vt 0.425526 0.207216
vt 0.398088 0.191676
vt 0.451980 0.305706
vt 0.441940 0.277138
vt 0.414244 0.299640
vt 0.408207 0.296273
vt 0.445747 0.332524
vt 0.432624 0.332741
vt 0.434306 0.339206
vt 0.449666 0.219044
vt 0.440352 0.235064
vt 0.432735 0.239923
vt 0.428445 0.232645
vt 0.372868 0.270620
vt 0.368311 0.265917
vt 0.355958 0.236393
vt 0.478047 0.365284
vt 0.469678 0.367477
vt 0.466760 0.377397
vt 0.503175 0.393831
vt 0.509182 0.404057
vt 0.495951 0.400940
vt 0.536214 0.429041
vt 0.505141 0.418999
vt 0.512476 0.430477
vt 0.534840 0.435990
vt 0.512588 0.438850
vt 0.515446 0.446373
vt 0.497652 0.424306
vt 0.491705 0.430171
vt 0.495141 0.445505
vt 0.456002 0.412549
vt 0.454630 0.417224
vt 0.470365 0.153881
vt 0.466102 0.154231
vt 0.458429 0.148341
vt 0.442814 0.129629
vt 0.445750 0.134947
vt 0.439808 0.124794
vt 0.438147 0.123592
vt 0.431226 0.121499
vt 0.428720 0.102979
vt 0.423668 0.097624
vt 0.425346 0.105935
vt 0.428340 0.095144
vt 0.422600 0.091520
vt 0.427989 0.084674
vt 0.422015 0.080267
vt 0.432638 0.059853
vt 0.427021 0.068933
vt 0.423211 0.069543
vt 0.427358 0.057087
vt 0.478398 0.023436
vt 0.592570 0.492503
vt 0.490089 0.021526
vt 0.477376 0.020983
vt 0.465019 0.027049
vt 0.475973 0.017906
vt 0.449598 0.033566
vt 0.431330 0.057688
vt 0.408183 0.178198
vt 0.394888 0.165878
vt 0.385112 0.183384
vt 0.376155 0.137337
vt 0.383117 0.125841
vt 0.357304 0.190034
vt 0.353904 0.181848
vt 0.572169 0.418248
vt 0.576260 0.430918
vt 0.569659 0.427197
vt 0.575039 0.444097
vt 0.580145 0.451730
vt 0.575859 0.454549
vt 0.493790 0.465348
vt 0.483507 0.465285
vt 0.487220 0.472951
vt 0.492773 0.479155
vt 0.494907 0.487491
vt 0.501429 0.497112
vt 0.586307 0.486801
vt 0.572896 0.491372
vt 0.574296 0.500352
vt 0.562700 0.500457
vt 0.562833 0.508967
vt 0.548976 0.516530
vt 0.544945 0.530801
vt 0.539855 0.524615
vt 0.493097 0.502880
vt 0.498122 0.512892
vt 0.482002 0.507812
vt 0.472689 0.512259
vt 0.533957 0.544719
vt 0.545660 0.556235
vt 0.194055 0.433017
vt 0.192554 0.434610
vt 0.203443 0.458236
vt 0.201781 0.456563
vt 0.209008 0.478669
vt 0.210889 0.478961
vt 0.210905 0.485446
vt 0.212960 0.492322
vt 0.000000 0.000000
vt 0.257973 0.537827
vt 0.215518 0.495966
vt 0.221276 0.501257
vt 0.226389 0.505185
vt 0.000000 0.000000
vt 0.218622 0.500070
vt 0.225591 0.506063
vt 0.183562 0.417501
vt 0.181809 0.407728
vt 0.181016 0.404855
vt 0.184478 0.392726
vt 0.182290 0.401438
vt 0.181724 0.399374
vt 0.184550 0.385306
vt 0.187269 0.422037
vt 0.187882 0.424533
vt 0.189667 0.429009
vt 0.184064 0.421177
vt 0.177712 0.425972
vt 0.058591 0.742104
vt 0.068779 0.792566
vt 0.072455 0.793998
vt 0.077448 0.797276
vt 0.081488 0.794927
vt 0.084633 0.792106
vt 0.088137 0.788540
vt 0.064949 0.785210
vt 0.068664 0.783229
vt 0.072498 0.785920
vt 0.084794 0.783368
vt 0.072082 0.780876
vt 0.060217 0.769756
vt 0.056573 0.763978
vt 0.077090 0.769194
vt 0.061332 0.756008
vt 0.065734 0.756860
vt 0.075089 0.761909
vt 0.077946 0.724124
vt 0.081309 0.731932
vt 0.084636 0.733600
vt 0.042989 0.230619
vt 0.046233 0.230131
vt 0.053366 0.213517
vt 0.054414 0.223279
vt 0.043296 0.243681
vt 0.045705 0.239017
vt 0.045750 0.249613
vt 0.050257 0.732243
vt 0.052642 0.727258
vt 0.048135 0.244628
vt 0.057137 0.725100
vt 0.059471 0.231205
vt 0.062192 0.719433
vt 0.066025 0.723541
vt 0.069303 0.717962
vt 0.068870 0.234585
vt 0.073377 0.717215
vt 0.054742 0.735848
vt 0.062761 0.727550
vt 0.093355 0.789328
vt 0.092000 0.778874
vt 0.084918 0.775917
vt 0.089572 0.771736
vt 0.090473 0.764408
vt 0.085633 0.767253
vt 0.085270 0.760951
vt 0.086619 0.755469
vt 0.090328 0.758031
vt 0.069559 0.745688
vt 0.076230 0.737598
vt 0.080411 0.741080
s 1
usemtl material_0
f 46/47/1 45/46/2 43/44/3 9/9/4 10/10/5 4/4/6 5/5/7
f 122/124/8 123/125/9 126/128/10 128/131/11 135/139/12 134/138/13 143/147/14 120/122/15
f 15/15/16 14/14/17 16/16/18 121/123/19 119/121/20 34/35/21 35/36/22 33/34/23 13/13/24
f 14/14/17 15/15/16 13/13/24 33/34/23 29/30/25 12/12/26 11/11/27 1/1/28 3/3/29 4/4/6 10/10/5 9/9/4 43/44/3 44/45/30 16/16/18
f 32/33/31 31/32/32 133/137/33 134/138/13 137/141/34 136/140/35 40/41/36 41/42/37 39/40/38 38/39/39 37/38/40 24/24/41 30/31/42
f 103/105/43 98/100/44 105/107/45 106/108/46 107/109/47 108/110/48 109/111/49 110/112/50 114/116/51 115/117/52 113/115/53 104/106/54
f 160/165/55 159/164/56 144/149/57 179/187/58 173/180/59 180/188/60 190/198/61
f 150/155/62 182/190/63 181/189/64 118/120/65 84/86/66 78/79/67 148/153/68 149/154/69 154/159/70
f 71/72/71 68/69/72 69/70/73 72/73/74 74/75/75 77/78/76 76/77/77 85/87/78 75/76/79 73/74/80
f 6/6/81 7/7/82 5/5/7 4/4/6 3/3/29 2/2/83
f 183/191/84 186/194/85 187/195/86 188/196/87 185/193/88 184/192/89 182/190/63 150/155/62 154/159/70
s 0
f 75/76/90 82/84/91 79/80/92 94/96/93 6/6/94 23/23/95 60/61/96 63/64/97 65/66/98 73/74/99
s 1
f 143/147/14 141/145/100 142/146/101 120/122/15
f 46/47/1 5/5/7 7/7/82 95/97/102 49/50/103 52/53/104 53/54/105 51/52/106 55/56/107 50/51/108 47/48/109 48/49/110
f 22/22/111 21/21/112 20/20/113 19/19/114 17/17/115
f 121/123/19 123/125/9 122/124/8
f 78/79/67 84/86/66 85/87/78 76/77/77 77/78/76
f 26/27/116 42/43/117 91/93/118 88/90/119 87/89/120 86/88/121 28/29/122 25/26/123 27/28/124
f 169/174/125 170/175/126 172/178/127 179/187/58 144/149/57 159/164/56 156/161/128 157/162/129 171/176/130
f 6/6/81 94/96/131 93/95/132 7/7/82
f 6/6/81 2/2/83 20/20/113 21/21/112 23/23/133
f 168/173/134 131/135/135 129/132/136 132/136/137 162/167/138 178/185/139 177/184/140 176/183/141 175/182/142 174/181/143
f 176/183/141 177/184/140 178/186/139 162/167/138 163/168/144 192/200/145 191/199/146 190/198/61 180/188/60
f 131/134/135 168/173/134 167/172/147 138/142/148 135/139/12 128/131/11
f 66/67/149 87/89/120 88/90/119 91/93/118 92/94/150 157/162/129 156/161/128 151/156/151 152/157/152 145/150/153 90/92/154 89/91/155 67/68/156
f 132/136/137 130/133/157 127/129/158 164/169/159 163/168/144 162/167/138
f 111/113/160 112/114/161 110/112/50 109/111/49 108/110/48 107/109/47 106/108/46 105/107/45 83/85/162 81/83/163 84/86/66 118/120/65 117/119/164
f 80/81/165 97/99/166 94/96/131 79/80/167
f 54/55/168 53/54/105 52/53/104 49/50/103 95/97/102 96/98/169 98/100/44 103/105/43 102/104/170 101/103/171 99/101/172 100/102/173 57/58/174
f 71/72/71 73/74/80 65/66/175 66/67/149
f 154/159/70 149/154/69 148/153/68 147/152/176 153/158/177 155/160/178 158/163/179 161/166/180 186/194/85 183/191/84
f 95/97/102 7/7/82 93/95/132 94/96/131 97/99/166 96/98/169
f 56/57/181 126/128/10 125/127/182 124/126/183 58/59/184 59/60/185 48/49/110 47/48/109 50/51/108 55/56/107
f 166/171/186 167/172/147 168/173/134 174/181/143 175/182/142 176/183/141 180/188/60 173/180/59 179/187/58 172/179/127 170/175/126 165/170/187
f 127/130/158 116/118/188 115/117/52 114/116/51 189/197/189 164/169/159
f 135/139/12 138/142/148 137/141/34 134/138/13
f 123/125/9 125/127/182 126/128/10
f 158/163/179 160/165/55 190/198/61 191/199/146 192/200/145 188/196/87 187/195/86 186/194/85 161/166/180
f 133/137/33 140/144/190 141/145/100 143/148/14 134/138/13
f 74/75/75 72/73/74 69/70/73 70/71/191 67/68/156 89/91/155 90/92/154 145/150/153 146/151/192
f 165/170/187 170/175/126 169/174/125 139/143/193 138/142/148 167/172/147 166/171/186
f 131/135/135 128/131/11 129/132/136
f 129/132/136 130/133/157 132/136/137
f 121/123/19 122/124/8 120/122/15 142/146/101 119/121/20
f 121/123/19 124/126/183 125/127/182 123/125/9
f 21/21/112 22/22/111 17/17/115 18/18/194 24/24/41 37/38/40 36/37/195 27/28/124 25/26/123 62/63/196 61/62/197
f 83/85/162 105/107/45 98/100/44 96/98/169 97/99/166 80/82/165 81/83/163
f 56/57/181 55/56/107 51/52/106 53/54/105 54/55/168 57/58/174 100/102/173 99/101/172 101/103/171 102/104/170 130/133/157 129/132/136 128/131/11 126/128/10
f 189/197/189 185/193/88 188/196/87 192/200/145 163/168/144 164/169/159
f 139/143/193 42/43/117 26/27/116 27/28/124 36/37/195 37/38/40 38/39/39 39/40/38 41/42/37 40/41/36 136/140/35
f 64/65/198 63/64/199 60/61/200 23/23/133 21/21/112 61/62/197 62/63/196
f 1/1/28 19/19/114 20/20/113 2/2/83 3/3/29
f 1/1/28 11/11/27 12/12/26 8/8/201 30/31/42 24/25/41 18/18/194 17/17/115 19/19/114
f 64/65/198 62/63/196 25/26/123 28/29/122 86/88/121 87/89/120 66/67/149 65/66/175 63/64/199
f 116/118/188 127/130/158 130/133/157 102/104/170 103/105/43 104/106/54 113/115/53 115/117/52
f 114/116/51 110/112/50 112/114/161 111/113/160 117/119/164 118/120/65 181/189/64 182/190/63 184/192/89 185/193/88 189/197/189
f 140/144/190 133/137/33 31/32/32 32/33/31 30/31/42 8/8/201 12/12/26 29/30/25 33/34/23 35/36/22 34/35/21 119/121/20 142/146/101 141/145/100
f 71/72/71 66/67/149 67/68/156 70/71/191 69/70/73 68/69/72
f 139/143/193 169/174/125 171/177/130 157/162/129 92/94/150 91/93/118 42/43/117
f 136/140/35 137/141/34 138/142/148 139/143/193
f 152/157/152 151/156/151 156/161/128 159/164/56 160/165/55 158/163/179 155/160/178 153/158/177 146/151/192 145/150/153
f 148/153/68 78/79/67 77/78/76 74/75/75 146/151/192 153/158/177 147/152/176
f 46/47/1 48/49/110 59/60/185 58/59/184 124/126/183 121/123/19 16/16/18 44/45/30 43/44/3 45/46/2
f 84/86/66 81/83/163 80/82/165 79/80/167 82/84/202 75/76/79 85/87/78
