<svg id="Layer_1" data-name="Layer 1" xmlns="http://www.w3.org/2000/svg" viewBox="0 0 543 543"><path d="M540,275c0,146.36-118.63,265-265,265S10,421.36,10,275,128.64,10,275,10,540,128.64,540,275Z" transform="translate(-3.5 -3.5)" style="fill:#fff;stroke:#000;stroke-miterlimit:10;stroke-width:13px"/><path d="M451.62,255a35.53,35.53,0,1,1-35.52-35.54A35.52,35.52,0,0,1,451.62,255Z" transform="translate(-3.5 -3.5)" style="stroke:#000;stroke-miterlimit:10"/><path d="M369.67,219.76a8.93,8.93,0,0,1-8.26-12.31c.67-1.61,17-39.38,74.13-28.59a9,9,0,1,1-3.32,17.59c-42.36-8-53.84,16.87-54.3,17.93A9,9,0,0,1,369.67,219.76Z" transform="translate(-3.5 -3.5)" style="stroke:#000;stroke-miterlimit:10"/><path d="M174.18,255a35.53,35.53,0,1,1-35.54-35.54A35.54,35.54,0,0,1,174.18,255Z" transform="translate(-3.5 -3.5)" style="stroke:#000;stroke-miterlimit:10"/><path d="M92.22,230.1a8.72,8.72,0,0,1-3.48-.72A8.89,8.89,0,0,1,84,217.78c.67-1.6,17-39.32,74.13-28.59a9,9,0,1,1-3.32,17.59c-42.35-8-53.84,16.88-54.31,17.94A9.07,9.07,0,0,1,92.22,230.1Z" transform="translate(-3.5 -3.5)" style="stroke:#000;stroke-miterlimit:10"/><path d="M304.15,449.49a13.43,13.43,0,0,1-.86-26.83,140.87,140.87,0,0,0,100.4-53,13.43,13.43,0,0,1,21.14,16.56c-28.66,36.58-73.45,60.21-119.82,63.19C304.72,449.48,304.44,449.49,304.15,449.49Z" transform="translate(-3.5 -3.5)" style="stroke:#000;stroke-miterlimit:10"/></svg>