<svg id="Layer_1" data-name="Layer 1" xmlns="http://www.w3.org/2000/svg" viewBox="0 0 551.43 551.42"><path d="M544.15,275.22c0,148.68-120.52,269.2-269.21,269.2S5.73,423.9,5.73,275.22,126.25,6,274.94,6,544.15,126.52,544.15,275.22Z" transform="translate(0.77 0.5)" style="fill:#fff;stroke:#000;stroke-miterlimit:10;stroke-width:13px"/><path d="M379,384.06a13.1,13.1,0,0,1-9-3.53c-21.91-20.4-51.73-32.32-83.95-33.56-35.81-1.35-69.9,10.82-93.6,33.45a13.16,13.16,0,1,1-18.18-19c28.82-27.52,70-42.39,112.79-40.72,38.53,1.48,74.35,15.89,100.88,40.6a13.17,13.17,0,0,1-9,22.8Z" transform="translate(0.77 0.5)" style="stroke:#000;stroke-miterlimit:10"/><path d="M443.7,307a8.37,8.37,0,0,1-2.46-.36L384.06,290a8.78,8.78,0,0,1-1.57-16.22s44.48-23,57.79-30.1a8.78,8.78,0,1,1,8.26,15.49c-7.48,4-24.76,13-38.53,20.12l36.15,10.56A8.78,8.78,0,0,1,443.7,307Z" transform="translate(0.77 0.5)" style="stroke:#000;stroke-miterlimit:10"/><path d="M121.1,307a8.78,8.78,0,0,1-2.46-17.2l36.14-10.56c-13.75-7.13-31-16.13-38.52-20.12a8.78,8.78,0,1,1,8.26-15.49c13.31,7.1,57.79,30.1,57.79,30.1A8.78,8.78,0,0,1,180.74,290l-57.18,16.69A8.42,8.42,0,0,1,121.1,307Z" transform="translate(0.77 0.5)" style="stroke:#000;stroke-miterlimit:10"/><path d="M456.67,213.51a8.75,8.75,0,0,1-1.34-.11c-43.76-6.74-65.75-42.25-66.66-43.76a8.77,8.77,0,1,1,15-9.1c.34.52,19,30.06,54.34,35.51a8.78,8.78,0,0,1-1.33,17.46Z" transform="translate(0.77 0.5)" style="stroke:#000;stroke-miterlimit:10"/><path d="M108.12,213.51a8.78,8.78,0,0,1-1.33-17.46c35.77-5.52,54.15-35.21,54.33-35.51a8.78,8.78,0,0,1,15,9.1c-.91,1.51-22.9,37-66.66,43.76A8.78,8.78,0,0,1,108.12,213.51Z" transform="translate(0.77 0.5)" style="stroke:#000;stroke-miterlimit:10"/><path d="M243.93,570" transform="translate(0.77 0.5)"/></svg>